<?xml version="1.0" encoding="UTF-8"?>
<svg width="172px" height="89px" viewBox="0 0 172 89" version="1.1" xmlns="http://www.w3.org/2000/svg" xmlns:xlink="http://www.w3.org/1999/xlink">
    <!-- Generator: Sketch 52.2 (67145) - http://www.bohemiancoding.com/sketch -->
    <title>logo-signin</title>
    <desc>Created with Sketch.</desc>
    <g id="Web---Desktop" stroke="none" stroke-width="1" fill="none" fill-rule="evenodd">
        <g id="Sign-In---Empty" transform="translate(-643.000000, -245.000000)">
            <g id="logo-signin" transform="translate(643.000000, 245.000000)">
                <path d="M107.652,73.651 L101.94,73.651 C100.344,73.651 99.735,73.672 98.832,73.714 C98.958,72.811 99,72.097 99,70.627 L99,59.14 C99,58.027 98.958,57.124 98.832,56.116 C99.903,56.179 100.197,56.179 101.919,56.179 L107.421,56.179 C110.823,56.179 112.818,57.817 112.818,60.589 C112.818,61.87 112.398,62.878 111.6,63.592 C111.138,63.991 110.76,64.201 109.899,64.516 C110.928,64.747 111.474,64.999 112.083,65.524 C112.986,66.322 113.448,67.456 113.448,68.842 C113.448,71.866 111.306,73.651 107.652,73.651 Z M103.116,62.92 L106.812,62.92 C107.925,62.92 108.618,62.269 108.618,61.24 C108.618,60.211 107.967,59.623 106.77,59.623 L103.116,59.623 L103.116,62.92 Z M103.116,66.28 L103.116,70.186 L106.98,70.186 C108.303,70.186 109.101,69.451 109.101,68.212 C109.101,66.994 108.303,66.28 106.959,66.28 L103.116,66.28 Z M125.288,55.801 C130.454,55.801 133.751,59.329 133.751,64.831 C133.751,70.375 130.37,74.05 125.267,74.05 C120.122,74.05 116.804,70.459 116.804,64.894 C116.804,59.35 120.122,55.801 125.288,55.801 Z M125.288,70.417 C127.829,70.417 129.383,68.317 129.383,64.873 C129.383,61.471 127.829,59.413 125.288,59.413 C122.726,59.413 121.151,61.492 121.151,64.873 C121.151,68.296 122.726,70.417 125.288,70.417 Z M137.22,70.648 L137.22,59.203 C137.22,57.775 137.178,57.082 137.031,56.116 C137.871,56.158 138.396,56.179 140.139,56.179 L144.528,56.179 C147.111,56.179 149.19,56.893 150.597,58.258 C152.13,59.77 152.907,61.975 152.907,64.768 C152.907,67.645 152.067,69.955 150.471,71.551 C149.064,72.937 147.069,73.651 144.57,73.651 L140.139,73.651 C138.522,73.651 137.934,73.672 137.052,73.714 C137.178,72.79 137.22,72.097 137.22,70.648 Z M141.378,69.976 L144.192,69.976 C145.557,69.976 146.523,69.619 147.279,68.863 C148.14,67.981 148.602,66.574 148.602,64.831 C148.602,63.046 148.203,61.744 147.384,60.925 C146.649,60.19 145.641,59.854 144.129,59.854 L141.378,59.854 L141.378,69.976 Z M164.814,66.658 L164.814,70.543 C164.814,71.635 164.856,72.559 164.982,73.651 L160.404,73.651 C160.509,72.685 160.572,71.719 160.572,70.543 L160.572,66.658 L155.742,58.72 C155.364,58.069 154.902,57.376 154.062,56.179 L159.375,56.179 C159.606,56.914 159.837,57.46 160.362,58.384 L162.693,62.647 L165.024,58.405 C165.549,57.439 165.843,56.788 165.99,56.179 L171.303,56.179 C170.694,57.061 169.896,58.258 169.623,58.72 L164.814,66.658 Z" id="BODY" fill="#196CFF"></path>
                <path d="M10.269,59.896 L10.269,70.48 C10.269,71.74 10.311,72.664 10.437,73.651 L5.796,73.651 C5.922,72.664 5.964,71.803 5.964,70.48 L5.964,59.896 L3.486,59.896 C2.163,59.896 1.806,59.917 0.315,60.043 L0.315,56.032 C1.008,56.116 2.163,56.179 3.444,56.179 L12.642,56.179 C14.112,56.179 14.952,56.137 15.918,56.032 L15.918,60.043 C14.973,59.938 14.154,59.896 12.642,59.896 L10.269,59.896 Z M35.394,73.651 L30.48,73.651 C30.354,72.979 30.102,72.118 29.451,70.375 C28.779,68.548 28.527,68.065 28.002,67.603 C27.561,67.204 27.036,67.036 26.364,67.036 L24.222,67.036 L24.222,70.48 C24.222,71.908 24.264,72.685 24.39,73.651 L19.875,73.651 C20.001,72.685 20.043,72.055 20.043,70.501 L20.043,59.203 C20.043,57.901 20.001,57.124 19.875,56.116 C20.799,56.158 21.576,56.179 23.004,56.179 L28.464,56.179 C31.866,56.179 33.84,57.943 33.84,60.967 C33.84,62.458 33.42,63.634 32.601,64.411 C32.076,64.894 31.635,65.125 30.606,65.461 C31.677,65.797 32.16,66.28 32.832,67.771 C33.147,68.443 33.441,69.157 34.386,71.425 C34.617,72.013 34.869,72.538 35.394,73.651 Z M24.222,63.445 L27.498,63.445 C28.737,63.445 29.493,62.689 29.493,61.492 C29.493,60.316 28.821,59.707 27.519,59.707 L24.222,59.707 L24.222,63.445 Z M55.718,73.651 L50.804,73.651 C50.636,72.643 50.51,72.097 50.3,71.383 L49.733,69.598 L43.748,69.598 L43.181,71.383 C42.908,72.223 42.761,72.874 42.656,73.651 L37.742,73.651 C38.057,73.021 38.246,72.517 38.75,71.089 L43.286,58.447 C43.664,57.418 43.853,56.788 43.958,56.179 L49.439,56.179 C49.586,56.788 49.733,57.334 50.153,58.447 L54.71,71.089 C55.109,72.202 55.445,73.063 55.718,73.651 Z M48.704,66.07 L46.709,59.77 L44.756,66.07 L48.704,66.07 Z M74.177,61.429 L69.851,62.269 C69.452,60.358 68.339,59.413 66.533,59.413 C63.971,59.413 62.48,61.429 62.48,64.894 C62.48,68.317 64.034,70.396 66.638,70.396 C67.793,70.396 68.78,69.913 69.389,69.073 C69.746,68.569 69.893,68.149 70.019,67.267 L74.387,67.918 C73.988,69.703 73.526,70.732 72.644,71.761 C71.342,73.252 69.305,74.05 66.764,74.05 C64.202,74.05 62.039,73.252 60.548,71.74 C58.994,70.165 58.112,67.708 58.112,64.894 C58.112,62.038 58.994,59.623 60.653,57.985 C62.102,56.578 64.223,55.801 66.68,55.801 C69.389,55.801 71.51,56.725 72.875,58.552 C73.547,59.413 73.904,60.19 74.177,61.429 Z M87.714,63.088 L92.775,70.543 C94.014,72.391 94.287,72.769 95.001,73.651 L89.541,73.651 C89.247,72.979 88.638,71.866 88.092,70.984 L84.837,65.776 L82.716,67.897 L82.716,70.543 C82.716,71.845 82.758,72.538 82.884,73.651 L78.432,73.651 C78.558,72.58 78.6,71.803 78.6,70.543 L78.6,59.287 C78.6,58.006 78.558,57.187 78.432,56.179 L82.884,56.179 C82.758,57.271 82.716,57.964 82.716,59.287 L82.716,63.004 L86.895,58.531 C87.714,57.67 88.26,56.956 88.722,56.179 L94.392,56.179 C94.014,56.557 93.867,56.725 93.573,57.019 L92.103,58.489 L87.714,63.088 Z" id="TRACK" fill="#FFFFFF"></path>
                <g id="LOGO-1" transform="translate(65.000000, 0.000000)" fill-rule="nonzero">
                    <path d="M6.47058824,12.9411765 C2.89698103,12.9411765 0,10.0441954 0,6.47058824 C0,2.89698103 2.89698103,0 6.47058824,0 C10.0441954,0 12.9411765,2.89698103 12.9411765,6.47058824 C12.9411765,10.0441954 10.0441954,12.9411765 6.47058824,12.9411765 Z M22,12.9411765 C18.4263928,12.9411765 15.5294118,10.0441954 15.5294118,6.47058824 C15.5294118,2.89698103 18.4263928,0 22,0 C25.5736072,0 28.4705882,2.89698103 28.4705882,6.47058824 C28.4705882,10.0441954 25.5736072,12.9411765 22,12.9411765 Z M22,28.4705882 C18.4263928,28.4705882 15.5294118,25.5736072 15.5294118,22 C15.5294118,18.4263928 18.4263928,15.5294118 22,15.5294118 C25.5736072,15.5294118 28.4705882,18.4263928 28.4705882,22 C28.4705882,25.5736072 25.5736072,28.4705882 22,28.4705882 Z M22,44 C18.4263928,44 15.5294118,41.103019 15.5294118,37.5294118 C15.5294118,33.9558046 18.4263928,31.0588235 22,31.0588235 C25.5736072,31.0588235 28.4705882,33.9558046 28.4705882,37.5294118 C28.4705882,41.103019 25.5736072,44 22,44 Z M37.5294118,12.9411765 C33.9558046,12.9411765 31.0588235,10.0441954 31.0588235,6.47058824 C31.0588235,2.89698103 33.9558046,0 37.5294118,0 C41.103019,0 44,2.89698103 44,6.47058824 C44,10.0441954 41.103019,12.9411765 37.5294118,12.9411765 Z" id="Combined-Shape" fill="#FFFFFF"></path>
                    <path d="M6.47058824,27.4545455 C9.329474,27.4545455 11.6470588,25.1752678 11.6470588,22.3636364 C11.6470588,19.5520049 9.329474,17.2727273 6.47058824,17.2727273 C3.61170247,17.2727273 1.29411765,19.5520049 1.29411765,22.3636364 C1.29411765,25.1752678 3.61170247,27.4545455 6.47058824,27.4545455 Z M6.47058824,28.7272727 C2.89698103,28.7272727 0,25.8781757 0,22.3636364 C0,18.849097 2.89698103,16 6.47058824,16 C10.0441954,16 12.9411765,18.849097 12.9411765,22.3636364 C12.9411765,25.8781757 10.0441954,28.7272727 6.47058824,28.7272727 Z M6.47058824,42.7272727 C9.329474,42.7272727 11.6470588,40.4479951 11.6470588,37.6363636 C11.6470588,34.8247322 9.329474,32.5454545 6.47058824,32.5454545 C3.61170247,32.5454545 1.29411765,34.8247322 1.29411765,37.6363636 C1.29411765,40.4479951 3.61170247,42.7272727 6.47058824,42.7272727 Z M6.47058824,44 C2.89698103,44 0,41.150903 0,37.6363636 C0,34.1218243 2.89698103,31.2727273 6.47058824,31.2727273 C10.0441954,31.2727273 12.9411765,34.1218243 12.9411765,37.6363636 C12.9411765,41.150903 10.0441954,44 6.47058824,44 Z M37.5294118,27.4545455 C40.3882975,27.4545455 42.7058824,25.1752678 42.7058824,22.3636364 C42.7058824,19.5520049 40.3882975,17.2727273 37.5294118,17.2727273 C34.670526,17.2727273 32.3529412,19.5520049 32.3529412,22.3636364 C32.3529412,25.1752678 34.670526,27.4545455 37.5294118,27.4545455 Z M37.5294118,28.7272727 C33.9558046,28.7272727 31.0588235,25.8781757 31.0588235,22.3636364 C31.0588235,18.849097 33.9558046,16 37.5294118,16 C41.103019,16 44,18.849097 44,22.3636364 C44,25.8781757 41.103019,28.7272727 37.5294118,28.7272727 Z M37.5294118,42.7272727 C40.3882975,42.7272727 42.7058824,40.4479951 42.7058824,37.6363636 C42.7058824,34.8247322 40.3882975,32.5454545 37.5294118,32.5454545 C34.670526,32.5454545 32.3529412,34.8247322 32.3529412,37.6363636 C32.3529412,40.4479951 34.670526,42.7272727 37.5294118,42.7272727 Z M37.5294118,44 C33.9558046,44 31.0588235,41.150903 31.0588235,37.6363636 C31.0588235,34.1218243 33.9558046,31.2727273 37.5294118,31.2727273 C41.103019,31.2727273 44,34.1218243 44,37.6363636 C44,41.150903 41.103019,44 37.5294118,44 Z" id="Combined-Shape" fill="#196CFF"></path>
                </g>
                <path d="M34.8,88.31 L32.8,88.31 C32.76,87.99 32.69,87.64 32.59,87.24 L31.83,84.3 C31.73,83.91 31.65,83.45 31.55,82.79 C31.49,83.2 31.37,83.83 31.25,84.3 L30.51,87.25 C30.38,87.75 30.32,88.04 30.29,88.31 L28.3,88.31 C28.25,88.02 28.2,87.81 28.05,87.23 L26.45,81.23 C26.31,80.72 26.17,80.26 26.07,79.99 L28.35,79.99 C28.36,80.35 28.41,80.67 28.49,81.09 L29.13,84.13 C29.16,84.28 29.23,84.75 29.35,85.54 C29.5,84.7 29.57,84.34 29.63,84.13 L30.43,81.03 C30.55,80.58 30.61,80.27 30.65,79.99 L32.43,79.99 C32.47,80.25 32.53,80.53 32.66,81 L33.47,84.08 C33.55,84.4 33.62,84.73 33.75,85.54 C33.77,85.35 33.77,85.35 33.83,84.93 C33.86,84.71 33.93,84.23 33.97,84.07 L34.6,81.09 C34.7,80.63 34.74,80.34 34.75,79.99 L37.02,79.99 C36.92,80.26 36.78,80.73 36.65,81.23 L35.05,87.22 C34.92,87.69 34.83,88.07 34.8,88.31 Z M41.51,79.81 C43.97,79.81 45.54,81.49 45.54,84.11 C45.54,86.75 43.93,88.5 41.5,88.5 C39.05,88.5 37.47,86.79 37.47,84.14 C37.47,81.5 39.05,79.81 41.51,79.81 Z M41.51,86.77 C42.72,86.77 43.46,85.77 43.46,84.13 C43.46,82.51 42.72,81.53 41.51,81.53 C40.29,81.53 39.54,82.52 39.54,84.13 C39.54,85.76 40.29,86.77 41.51,86.77 Z M53.93,88.31 L51.59,88.31 C51.53,87.99 51.41,87.58 51.1,86.75 C50.78,85.88 50.66,85.65 50.41,85.43 C50.2,85.24 49.95,85.16 49.63,85.16 L48.61,85.16 L48.61,86.8 C48.61,87.48 48.63,87.85 48.69,88.31 L46.54,88.31 C46.6,87.85 46.62,87.55 46.62,86.81 L46.62,81.43 C46.62,80.81 46.6,80.44 46.54,79.96 C46.98,79.98 47.35,79.99 48.03,79.99 L50.63,79.99 C52.25,79.99 53.19,80.83 53.19,82.27 C53.19,82.98 52.99,83.54 52.6,83.91 C52.35,84.14 52.14,84.25 51.65,84.41 C52.16,84.57 52.39,84.8 52.71,85.51 C52.86,85.83 53,86.17 53.45,87.25 C53.56,87.53 53.68,87.78 53.93,88.31 Z M48.61,83.45 L50.17,83.45 C50.76,83.45 51.12,83.09 51.12,82.52 C51.12,81.96 50.8,81.67 50.18,81.67 L48.61,81.67 L48.61,83.45 Z M59.18,83.28 L61.59,86.83 C62.18,87.71 62.31,87.89 62.65,88.31 L60.05,88.31 C59.91,87.99 59.62,87.46 59.36,87.04 L57.81,84.56 L56.8,85.57 L56.8,86.83 C56.8,87.45 56.82,87.78 56.88,88.31 L54.76,88.31 C54.82,87.8 54.84,87.43 54.84,86.83 L54.84,81.47 C54.84,80.86 54.82,80.47 54.76,79.99 L56.88,79.99 C56.82,80.51 56.8,80.84 56.8,81.47 L56.8,83.24 L58.79,81.11 C59.18,80.7 59.44,80.36 59.66,79.99 L62.36,79.99 C62.18,80.17 62.11,80.25 61.97,80.39 L61.27,81.09 L59.18,83.28 Z M66.55,79.81 C69.01,79.81 70.58,81.49 70.58,84.11 C70.58,86.75 68.97,88.5 66.54,88.5 C64.09,88.5 62.51,86.79 62.51,84.14 C62.51,81.5 64.09,79.81 66.55,79.81 Z M66.55,86.77 C67.76,86.77 68.5,85.77 68.5,84.13 C68.5,82.51 67.76,81.53 66.55,81.53 C65.33,81.53 64.58,82.52 64.58,84.13 C64.58,85.76 65.33,86.77 66.55,86.77 Z M77.07,79.99 L79.23,79.99 C79.17,80.42 79.15,80.78 79.15,81.5 L79.15,84.94 C79.15,87.22 77.78,88.51 75.37,88.51 C74.13,88.51 73.12,88.16 72.52,87.53 C71.94,86.91 71.64,86.04 71.64,84.92 L71.64,81.5 C71.64,80.81 71.62,80.37 71.56,79.99 L73.72,79.99 C73.66,80.36 73.64,80.76 73.64,81.5 L73.64,84.94 C73.64,86.2 74.21,86.8 75.38,86.8 C76.58,86.8 77.15,86.2 77.15,84.94 L77.15,81.5 C77.15,80.75 77.13,80.44 77.07,79.99 Z M84.72,81.76 L84.72,86.8 C84.72,87.4 84.74,87.84 84.8,88.31 L82.59,88.31 C82.65,87.84 82.67,87.43 82.67,86.8 L82.67,81.76 L81.49,81.76 C80.86,81.76 80.69,81.77 79.98,81.83 L79.98,79.92 C80.31,79.96 80.86,79.99 81.47,79.99 L85.85,79.99 C86.55,79.99 86.95,79.97 87.41,79.92 L87.41,81.83 C86.96,81.78 86.57,81.76 85.85,81.76 L84.72,81.76 Z M95.78,81.76 L95.78,86.8 C95.78,87.4 95.8,87.84 95.86,88.31 L93.65,88.31 C93.71,87.84 93.73,87.43 93.73,86.8 L93.73,81.76 L92.55,81.76 C91.92,81.76 91.75,81.77 91.04,81.83 L91.04,79.92 C91.37,79.96 91.92,79.99 92.53,79.99 L96.91,79.99 C97.61,79.99 98.01,79.97 98.47,79.92 L98.47,81.83 C98.02,81.78 97.63,81.76 96.91,81.76 L95.78,81.76 Z M106.63,88.31 L104.29,88.31 C104.23,87.99 104.11,87.58 103.8,86.75 C103.48,85.88 103.36,85.65 103.11,85.43 C102.9,85.24 102.65,85.16 102.33,85.16 L101.31,85.16 L101.31,86.8 C101.31,87.48 101.33,87.85 101.39,88.31 L99.24,88.31 C99.3,87.85 99.32,87.55 99.32,86.81 L99.32,81.43 C99.32,80.81 99.3,80.44 99.24,79.96 C99.68,79.98 100.05,79.99 100.73,79.99 L103.33,79.99 C104.95,79.99 105.89,80.83 105.89,82.27 C105.89,82.98 105.69,83.54 105.3,83.91 C105.05,84.14 104.84,84.25 104.35,84.41 C104.86,84.57 105.09,84.8 105.41,85.51 C105.56,85.83 105.7,86.17 106.15,87.25 C106.26,87.53 106.38,87.78 106.63,88.31 Z M101.31,83.45 L102.87,83.45 C103.46,83.45 103.82,83.09 103.82,82.52 C103.82,81.96 103.5,81.67 102.88,81.67 L101.31,81.67 L101.31,83.45 Z M115.47,88.31 L113.13,88.31 C113.05,87.83 112.99,87.57 112.89,87.23 L112.62,86.38 L109.77,86.38 L109.5,87.23 C109.37,87.63 109.3,87.94 109.25,88.31 L106.91,88.31 C107.06,88.01 107.15,87.77 107.39,87.09 L109.55,81.07 C109.73,80.58 109.82,80.28 109.87,79.99 L112.48,79.99 C112.55,80.28 112.62,80.54 112.82,81.07 L114.99,87.09 C115.18,87.62 115.34,88.03 115.47,88.31 Z M112.13,84.7 L111.18,81.7 L110.25,84.7 L112.13,84.7 Z M123.56,82.49 L121.5,82.89 C121.31,81.98 120.78,81.53 119.92,81.53 C118.7,81.53 117.99,82.49 117.99,84.14 C117.99,85.77 118.73,86.76 119.97,86.76 C120.52,86.76 120.99,86.53 121.28,86.13 C121.45,85.89 121.52,85.69 121.58,85.27 L123.66,85.58 C123.47,86.43 123.25,86.92 122.83,87.41 C122.21,88.12 121.24,88.5 120.03,88.5 C118.81,88.5 117.78,88.12 117.07,87.4 C116.33,86.65 115.91,85.48 115.91,84.14 C115.91,82.78 116.33,81.63 117.12,80.85 C117.81,80.18 118.82,79.81 119.99,79.81 C121.28,79.81 122.29,80.25 122.94,81.12 C123.26,81.53 123.43,81.9 123.56,82.49 Z M129.03,83.28 L131.44,86.83 C132.03,87.71 132.16,87.89 132.5,88.31 L129.9,88.31 C129.76,87.99 129.47,87.46 129.21,87.04 L127.66,84.56 L126.65,85.57 L126.65,86.83 C126.65,87.45 126.67,87.78 126.73,88.31 L124.61,88.31 C124.67,87.8 124.69,87.43 124.69,86.83 L124.69,81.47 C124.69,80.86 124.67,80.47 124.61,79.99 L126.73,79.99 C126.67,80.51 126.65,80.84 126.65,81.47 L126.65,83.24 L128.64,81.11 C129.03,80.7 129.29,80.36 129.51,79.99 L132.21,79.99 C132.03,80.17 131.96,80.25 131.82,80.39 L131.12,81.09 L129.03,83.28 Z M139.48,86.51 L139.48,88.38 C139.05,88.33 138.69,88.31 137.83,88.31 L134.68,88.31 C133.92,88.31 133.64,88.32 133.21,88.34 C133.27,87.94 133.29,87.57 133.29,86.88 L133.29,81.42 C133.29,80.8 133.27,80.45 133.21,79.96 C133.62,79.98 133.9,79.99 134.68,79.99 L137.87,79.99 C138.55,79.99 138.89,79.97 139.36,79.92 L139.36,81.79 C138.9,81.74 138.54,81.72 137.87,81.72 L135.27,81.72 L135.27,83.19 L137.43,83.19 C138.09,83.19 138.33,83.18 138.93,83.12 L138.93,84.97 C138.46,84.92 138.12,84.9 137.43,84.9 L135.27,84.9 L135.27,86.58 L137.85,86.58 C138.61,86.58 139.05,86.56 139.48,86.51 Z M147.89,88.31 L145.55,88.31 C145.49,87.99 145.37,87.58 145.06,86.75 C144.74,85.88 144.62,85.65 144.37,85.43 C144.16,85.24 143.91,85.16 143.59,85.16 L142.57,85.16 L142.57,86.8 C142.57,87.48 142.59,87.85 142.65,88.31 L140.5,88.31 C140.56,87.85 140.58,87.55 140.58,86.81 L140.58,81.43 C140.58,80.81 140.56,80.44 140.5,79.96 C140.94,79.98 141.31,79.99 141.99,79.99 L144.59,79.99 C146.21,79.99 147.15,80.83 147.15,82.27 C147.15,82.98 146.95,83.54 146.56,83.91 C146.31,84.14 146.1,84.25 145.61,84.41 C146.12,84.57 146.35,84.8 146.67,85.51 C146.82,85.83 146.96,86.17 147.41,87.25 C147.52,87.53 147.64,87.78 147.89,88.31 Z M142.57,83.45 L144.13,83.45 C144.72,83.45 145.08,83.09 145.08,82.52 C145.08,81.96 144.76,81.67 144.14,81.67 L142.57,81.67 L142.57,83.45 Z" id="WORKOUT-TRACKER" fill="#FFFFFF" opacity="0.599999964"></path>
            </g>
        </g>
    </g>
</svg>