<?xml version="1.0" encoding="UTF-8"?>
<svg width="145px" height="22px" viewBox="0 0 145 22" version="1.1" xmlns="http://www.w3.org/2000/svg" xmlns:xlink="http://www.w3.org/1999/xlink">
    <!-- Generator: Sketch 52.2 (67145) - http://www.bohemiancoding.com/sketch -->
    <title>Group</title>
    <desc>Created with Sketch.</desc>
    <g id="Symbols" stroke="none" stroke-width="1" fill="none" fill-rule="evenodd">
        <g id="Navigation/Desktop" transform="translate(-29.000000, -29.000000)">
            <g id="Group" transform="translate(29.000000, 29.000000)">
                <g id="LOGO-1" fill="#196CFF" fill-rule="nonzero">
                    <path d="M3.23529412,6.47058824 C1.44849052,6.47058824 0,5.02209772 0,3.23529412 C0,1.44849052 1.44849052,0 3.23529412,0 C5.02209772,0 6.47058824,1.44849052 6.47058824,3.23529412 C6.47058824,5.02209772 5.02209772,6.47058824 3.23529412,6.47058824 Z M11,6.47058824 C9.2131964,6.47058824 7.76470588,5.02209772 7.76470588,3.23529412 C7.76470588,1.44849052 9.2131964,0 11,0 C12.7868036,0 14.2352941,1.44849052 14.2352941,3.23529412 C14.2352941,5.02209772 12.7868036,6.47058824 11,6.47058824 Z M11,14.2352941 C9.2131964,14.2352941 7.76470588,12.7868036 7.76470588,11 C7.76470588,9.2131964 9.2131964,7.76470588 11,7.76470588 C12.7868036,7.76470588 14.2352941,9.2131964 14.2352941,11 C14.2352941,12.7868036 12.7868036,14.2352941 11,14.2352941 Z M11,22 C9.2131964,22 7.76470588,20.5515095 7.76470588,18.7647059 C7.76470588,16.9779023 9.2131964,15.5294118 11,15.5294118 C12.7868036,15.5294118 14.2352941,16.9779023 14.2352941,18.7647059 C14.2352941,20.5515095 12.7868036,22 11,22 Z M18.7647059,6.47058824 C16.9779023,6.47058824 15.5294118,5.02209772 15.5294118,3.23529412 C15.5294118,1.44849052 16.9779023,0 18.7647059,0 C20.5515095,0 22,1.44849052 22,3.23529412 C22,5.02209772 20.5515095,6.47058824 18.7647059,6.47058824 Z" id="Combined-Shape"></path>
                    <path d="M3.23529412,13.7272727 C4.664737,13.7272727 5.82352941,12.5876339 5.82352941,11.1818182 C5.82352941,9.77600246 4.664737,8.63636364 3.23529412,8.63636364 C1.80585124,8.63636364 0.647058824,9.77600246 0.647058824,11.1818182 C0.647058824,12.5876339 1.80585124,13.7272727 3.23529412,13.7272727 Z M3.23529412,14.3636364 C1.44849052,14.3636364 0,12.9390878 0,11.1818182 C0,9.42454852 1.44849052,8 3.23529412,8 C5.02209772,8 6.47058824,9.42454852 6.47058824,11.1818182 C6.47058824,12.9390878 5.02209772,14.3636364 3.23529412,14.3636364 Z M3.23529412,21.3636364 C4.664737,21.3636364 5.82352941,20.2239975 5.82352941,18.8181818 C5.82352941,17.4123661 4.664737,16.2727273 3.23529412,16.2727273 C1.80585124,16.2727273 0.647058824,17.4123661 0.647058824,18.8181818 C0.647058824,20.2239975 1.80585124,21.3636364 3.23529412,21.3636364 Z M3.23529412,22 C1.44849052,22 0,20.5754515 0,18.8181818 C0,17.0609122 1.44849052,15.6363636 3.23529412,15.6363636 C5.02209772,15.6363636 6.47058824,17.0609122 6.47058824,18.8181818 C6.47058824,20.5754515 5.02209772,22 3.23529412,22 Z M18.7647059,13.7272727 C20.1941488,13.7272727 21.3529412,12.5876339 21.3529412,11.1818182 C21.3529412,9.77600246 20.1941488,8.63636364 18.7647059,8.63636364 C17.335263,8.63636364 16.1764706,9.77600246 16.1764706,11.1818182 C16.1764706,12.5876339 17.335263,13.7272727 18.7647059,13.7272727 Z M18.7647059,14.3636364 C16.9779023,14.3636364 15.5294118,12.9390878 15.5294118,11.1818182 C15.5294118,9.42454852 16.9779023,8 18.7647059,8 C20.5515095,8 22,9.42454852 22,11.1818182 C22,12.9390878 20.5515095,14.3636364 18.7647059,14.3636364 Z M18.7647059,21.3636364 C20.1941488,21.3636364 21.3529412,20.2239975 21.3529412,18.8181818 C21.3529412,17.4123661 20.1941488,16.2727273 18.7647059,16.2727273 C17.335263,16.2727273 16.1764706,17.4123661 16.1764706,18.8181818 C16.1764706,20.2239975 17.335263,21.3636364 18.7647059,21.3636364 Z M18.7647059,22 C16.9779023,22 15.5294118,20.5754515 15.5294118,18.8181818 C15.5294118,17.0609122 16.9779023,15.6363636 18.7647059,15.6363636 C20.5515095,15.6363636 22,17.0609122 22,18.8181818 C22,20.5754515 20.5515095,22 18.7647059,22 Z" id="Combined-Shape"></path>
                </g>
                <path d="M41.4036073,7.69275029 L41.4036073,14.6524741 C41.4036073,15.4810127 41.4306267,16.0886076 41.511685,16.7376295 L38.5260369,16.7376295 C38.6070952,16.0886076 38.6341147,15.5224396 38.6341147,14.6524741 L38.6341147,7.69275029 L37.0399677,7.69275029 C36.1888554,7.69275029 35.9591901,7.70655926 35,7.78941312 L35,5.15189873 C35.4458208,5.20713464 36.1888554,5.24856157 37.0129483,5.24856157 L42.9302056,5.24856157 C43.875886,5.24856157 44.4162748,5.22094361 45.0377219,5.15189873 L45.0377219,7.78941312 C44.4297845,7.72036824 43.9029055,7.69275029 42.9302056,7.69275029 L41.4036073,7.69275029 Z M57.5670222,16.7376295 L54.4057478,16.7376295 C54.3246895,16.2957422 54.1625728,15.7295742 53.7437715,14.5834292 C53.3114605,13.3820483 53.1493438,13.0644419 52.8116008,12.7606444 C52.5278967,12.4982739 52.1901537,12.3878021 51.7578427,12.3878021 L50.3798512,12.3878021 L50.3798512,14.6524741 C50.3798512,15.5914845 50.4068707,16.1024166 50.487929,16.7376295 L47.5833392,16.7376295 C47.6643975,16.1024166 47.6914169,15.6881473 47.6914169,14.6662831 L47.6914169,7.23705409 C47.6914169,6.38089758 47.6643975,5.86996548 47.5833392,5.20713464 C48.1777669,5.23475259 48.6776265,5.24856157 49.5962875,5.24856157 L53.1088147,5.24856157 C55.2973893,5.24856157 56.567303,6.40851554 56.567303,8.39700806 C56.567303,9.37744534 56.2971086,10.150748 55.7702295,10.6616801 C55.4324865,10.9792865 55.1487824,11.1311853 54.4868061,11.3521289 C55.1758018,11.5730725 55.4865254,11.8906789 55.9188364,12.8711162 C56.1214822,13.3130035 56.3106183,13.7825086 56.9185557,15.273878 C57.0671626,15.6605293 57.2292792,16.0057537 57.5670222,16.7376295 Z M50.3798512,10.0264672 L52.4873675,10.0264672 C53.284441,10.0264672 53.7707909,9.52934407 53.7707909,8.74223245 C53.7707909,7.9689298 53.3384799,7.56846951 52.5008773,7.56846951 L50.3798512,7.56846951 L50.3798512,10.0264672 Z M70.6418579,16.7376295 L67.4805834,16.7376295 C67.3725057,16.0747986 67.2914474,15.7157652 67.1563502,15.2462601 L66.7915877,14.0724971 L62.9413175,14.0724971 L62.5765551,15.2462601 C62.4009287,15.7986191 62.3063607,16.2266974 62.2388121,16.7376295 L59.0775376,16.7376295 C59.2801834,16.3233602 59.4017709,15.9919448 59.7260042,15.0529344 L62.6441037,6.73993096 C62.8872786,6.06329114 63.0088661,5.64902186 63.0764147,5.24856157 L66.6024516,5.24856157 C66.6970197,5.64902186 66.7915877,6.00805524 67.0617821,6.73993096 L69.9933913,15.0529344 C70.250076,15.7848101 70.4662315,16.3509781 70.6418579,16.7376295 Z M66.1296114,11.7525892 L64.846188,7.60989643 L63.5897841,11.7525892 L66.1296114,11.7525892 Z M82.5169018,8.70080552 L79.7338995,9.25316456 C79.4772148,7.99654776 78.7611996,7.37514384 77.5993637,7.37514384 C75.9511779,7.37514384 74.9919877,8.70080552 74.9919877,10.9792865 C74.9919877,13.2301496 75.991707,14.5972382 77.6669123,14.5972382 C78.4099469,14.5972382 79.0449037,14.2796318 79.4366856,13.7272727 C79.6663509,13.3958573 79.7609189,13.1196778 79.8419772,12.5397008 L82.651999,12.9677791 C82.3953143,14.141542 82.0981005,14.8181818 81.5306922,15.4948216 C80.6930896,16.4752589 79.3826467,17 77.7479706,17 C76.0997848,17 74.7082836,16.4752589 73.7490935,15.4810127 C72.7493742,14.4453395 72.181966,12.8296893 72.181966,10.9792865 C72.181966,9.10126582 72.7493742,7.5132336 73.8166421,6.43613349 C74.7488128,5.51093211 76.1132945,5 77.6939317,5 C79.4366856,5 80.8011673,5.60759494 81.6792991,6.80897583 C82.1116102,7.37514384 82.3412754,7.88607595 82.5169018,8.70080552 Z M91.2255246,9.79171461 L94.4813671,14.693901 C95.2784406,15.9090909 95.454067,16.1576525 95.9133974,16.7376295 L92.4008702,16.7376295 C92.2117342,16.2957422 91.8199523,15.5638665 91.4686996,14.9838895 L89.374693,11.5592635 L88.0102112,12.9539701 L88.0102112,14.693901 C88.0102112,15.5500575 88.0372307,16.0057537 88.118289,16.7376295 L85.2542284,16.7376295 C85.3352867,16.0333717 85.3623061,15.5224396 85.3623061,14.693901 L85.3623061,7.29228999 C85.3623061,6.44994246 85.3352867,5.91139241 85.2542284,5.24856157 L88.118289,5.24856157 C88.0372307,5.96662831 88.0102112,6.42232451 88.0102112,7.29228999 L88.0102112,9.73647871 L90.6986455,6.79516686 C91.2255246,6.22899885 91.5767773,5.75949367 91.8739912,5.24856157 L95.5216156,5.24856157 C95.2784406,5.49712313 95.1838726,5.60759494 94.9947365,5.8009206 L94.0490561,6.76754891 L91.2255246,9.79171461 Z" id="TRACKBODY" fill="#121314"></path>
                <path d="M98.9343279,5.73594421 C98.9707117,6.18590242 98.9860341,6.64572702 98.9860341,7.19562716 L98.9860341,14.7491369 C98.9860341,15.4058835 98.9737942,15.845493 98.9393977,16.2554413 C99.3448878,16.2420591 99.7366788,16.2376295 100.377395,16.2376295 L104.052039,16.2376295 C106.140874,16.2376295 107.280721,15.2697977 107.280721,13.575374 C107.280721,12.7967044 107.036433,12.188241 106.57203,11.7686958 C106.247454,11.4826913 105.971334,11.3524285 105.385754,11.2180597 L103.762781,10.8456484 L105.322445,10.2624001 C105.816321,10.0777114 106.010327,9.96954604 106.254427,9.75416535 C106.663441,9.38009919 106.87543,8.84949944 106.87543,8.14844649 C106.87543,6.62167577 105.831416,5.74856157 103.903432,5.74856157 L100.363885,5.74856157 C99.4737428,5.74856157 99.2654954,5.7471943 98.9652561,5.73702256 C98.9549583,5.73667368 98.9446546,5.73631449 98.9343279,5.73594421 Z M103.51165,10.1812428 L100.633939,10.1812428 L100.633939,7.0132336 L103.484631,7.0132336 C104.51502,7.0132336 105.173486,7.6071026 105.173486,8.57652474 C105.173486,9.53628902 104.497033,10.1812428 103.51165,10.1812428 Z M100.633939,14.9591484 L100.633939,11.3906789 L103.606218,11.3906789 C104.739597,11.3906789 105.484209,12.0756746 105.484209,13.1611047 C105.484209,14.2562096 104.743193,14.9591484 103.619728,14.9591484 L100.633939,14.9591484 Z M115.39763,5.5 C112.35946,5.5 110.439703,7.60194523 110.439703,10.9792865 C110.439703,14.373435 112.362519,16.5 115.384121,16.5 C118.378211,16.5 120.342047,14.3185751 120.342047,10.9378596 C120.342047,7.58435893 118.432439,5.5 115.39763,5.5 Z M115.39763,15.1110472 C113.434824,15.1110472 112.236215,13.4669914 112.236215,10.9654776 C112.236215,8.49292635 113.435382,6.87514384 115.39763,6.87514384 C117.350027,6.87514384 118.532026,8.48305848 118.532026,10.9654776 C118.532026,13.4769099 117.350551,15.1110472 115.39763,15.1110472 Z M123.52663,16.2550295 C123.921863,16.2419128 124.30957,16.2376295 124.951576,16.2376295 L127.802126,16.2376295 C129.280984,16.2376295 130.437046,15.8165025 131.240953,15.0070724 C132.173464,14.053905 132.665485,12.6579795 132.665485,10.8964327 C132.665485,9.17937874 132.20763,7.85816255 131.32735,6.97068464 C130.522787,6.17284859 129.311841,5.74856157 127.775107,5.74856157 L124.951576,5.74856157 C124.281747,5.74856157 123.896757,5.74475551 123.520917,5.73233228 C123.560454,6.14949019 123.573724,6.58085477 123.573724,7.23705409 L123.573724,14.7629459 C123.573724,15.4117833 123.561515,15.8427545 123.52663,16.2550295 Z M127.558952,14.8210587 L125.248649,14.8210587 L125.248649,7.16513234 L127.518422,7.16513234 C128.612025,7.16513234 129.390785,7.42785471 129.969834,8.0197306 C130.599447,8.66329042 130.895993,9.63955553 130.895993,10.9378596 C130.895993,12.2024536 130.559375,13.2508685 129.902285,13.9388425 C129.31257,14.5416209 128.558816,14.8210587 127.558952,14.8210587 Z M144.06768,5.74856157 L141.955503,5.74856157 C141.840096,6.07889652 141.666103,6.45045913 141.400988,6.94906755 L139.459927,10.5596958 L139.020134,9.73757439 L137.524415,6.94143006 C137.262965,6.47108483 137.102241,6.13038503 136.965404,5.74856157 L134.850235,5.74856157 C135.09681,6.12153609 135.268408,6.39857594 135.418936,6.66369258 L138.596533,12.0016843 L138.596533,14.693901 C138.596533,15.2398476 138.577146,15.734499 138.537202,16.2376295 L140.382509,16.2376295 C140.342346,15.7430948 140.325497,15.2599796 140.325497,14.693901 L140.325497,12.0021987 L140.395369,11.8843079 L143.486351,6.66920316 C143.590173,6.48961186 143.812221,6.13954619 144.06768,5.74856157 Z" id="TRACKBODY-Copy" stroke="#196CFF" fill="#196CFF"></path>
            </g>
        </g>
    </g>
</svg>